# xmcd
#
# Track frame offsets: 
#        150
#        18167
#        38867
#        60694
#        83748
#
# Disc length: 1346 seconds
#
# Revision: 0
# Processed by: cddbd v1.5.2PL0 Copyright (c) Steve Scherf et al.
# Submitted via: ExactAudioCopy v0.99pb5
#
DISCID=32054005
DTITLE=JR and The Pacific Siders - Summer on the Inside
DYEAR=2009
DGENRE=Country
TTITLE0=Got to Go
TTITLE1=Dreams of a Dreamer
TTITLE2=Summer on the Inside
TTITLE3=Texas Wave Riders
TTITLE4=Juan the Wolf
EXTD=
EXTT0=
EXTT1=
EXTT2=
EXTT3=
EXTT4=
PLAYORDER=
